<svg xmlns="http://www.w3.org/2000/svg" width="23.402" height="26" viewBox="0 0 23.402 26">
  <path id="Icon" d="M16.466,26h-13A3.466,3.466,0,0,1,0,22.533V8.308L8.308,0h9.025A3.466,3.466,0,0,1,20.8,3.467V13.654A6.934,6.934,0,0,1,16.466,26Zm0-12.134A5.233,5.233,0,0,0,12.79,15.39a5.2,5.2,0,0,0,0,7.354,5.235,5.235,0,0,0,3.677,1.523,5.2,5.2,0,0,0,0-10.4ZM1.733,9.534v13a1.733,1.733,0,0,0,1.733,1.733H11.88a6.933,6.933,0,0,1,7.186-11.629V3.467a1.733,1.733,0,0,0-1.733-1.733h-7.8v5.2a2.6,2.6,0,0,1-2.6,2.6ZM7.8,2.959,2.959,7.8H6.934A.867.867,0,0,0,7.8,6.934Zm8.666,18.707A.867.867,0,0,1,15.6,20.8v-.867h-.867a.861.861,0,0,1-.613-.254.867.867,0,0,1,.613-1.48H15.6v-.867a.867.867,0,0,1,1.48-.613.861.861,0,0,1,.254.613V18.2H18.2a.873.873,0,0,1,.613.254.867.867,0,0,1-.613,1.48h-.867V20.8a.867.867,0,0,1-.867.867Z" transform="translate(0 0)" fill="#04f"/>
</svg>
