<svg xmlns="http://www.w3.org/2000/svg" width="25.998" height="26" viewBox="0 0 25.998 26">
  <path id="Icon" d="M17.928,26a8.063,8.063,0,0,1-4.837-1.612,16.548,16.548,0,0,1-5.021.716,15.181,15.181,0,0,1-5.695-.96C.821,23.487,0,22.579,0,21.518V3.587C0,2.525.821,1.617,2.375.96A15.181,15.181,0,0,1,8.069,0a15.181,15.181,0,0,1,5.695.96c1.553.657,2.375,1.565,2.375,2.626v6.476A8.069,8.069,0,1,1,17.928,26Zm0-14.344a6.278,6.278,0,1,0,2.4.478A6.235,6.235,0,0,0,17.932,11.656ZM1.793,18.488v3.03c0,.374.7.825,1.827,1.178a15.368,15.368,0,0,0,4.449.615,16.141,16.141,0,0,0,3.536-.371,8.08,8.08,0,0,1-1.564-3.314,19.357,19.357,0,0,1-1.972.1,14.041,14.041,0,0,1-6.277-1.237Zm0-6.277v3.928c0,.374.7.825,1.827,1.178a15.377,15.377,0,0,0,4.449.615,17.846,17.846,0,0,0,1.793-.089,7.99,7.99,0,0,1,1.561-4.682,18.675,18.675,0,0,1-3.264.288h-.09A14.04,14.04,0,0,1,1.793,12.211Zm0-6.276V9.862c0,.374.7.825,1.827,1.178a15.368,15.368,0,0,0,4.449.615,15.364,15.364,0,0,0,4.449-.615c1.127-.353,1.827-.8,1.827-1.178V5.936A14.023,14.023,0,0,1,8.069,7.173,14.04,14.04,0,0,1,1.793,5.936ZM8.069,1.793a15.368,15.368,0,0,0-4.449.615c-1.127.353-1.827.8-1.827,1.178s.7.825,1.827,1.178a15.378,15.378,0,0,0,4.449.615,15.374,15.374,0,0,0,4.449-.615c1.127-.353,1.827-.8,1.827-1.178s-.7-.825-1.827-1.178A15.364,15.364,0,0,0,8.069,1.793Zm9.963,19.725h-1.7V20.386h-.638v-.941h.638v-.571h-.638V17.784h.638V14.345H18.38a3.006,3.006,0,0,1,1.964.6,2.081,2.081,0,0,1,.726,1.7,2,2,0,0,1-.716,1.683,3.15,3.15,0,0,1-1.955.549h-.367v.571h1.529v.941H18.032v1.131Zm0-5.892v2.158H18.4a.854.854,0,0,0,.681-.286,1.243,1.243,0,0,0,.247-.835,1.09,1.09,0,0,0-.247-.772.951.951,0,0,0-.729-.265Z" fill="#04f"/>
</svg>
