<svg xmlns="http://www.w3.org/2000/svg" width="26" height="26" viewBox="0 0 26 26">
  <path id="Icon" d="M22.286,26H3.714a3.69,3.69,0,0,1-2.626-1.088A3.74,3.74,0,0,1,0,22.286V3.714A3.715,3.715,0,0,1,3.714,0H22.286a3.74,3.74,0,0,1,2.626,1.088A3.69,3.69,0,0,1,26,3.714V22.286A3.715,3.715,0,0,1,22.286,26ZM3.714,1.857A1.859,1.859,0,0,0,1.857,3.714V22.286A1.87,1.87,0,0,0,2.4,23.6a1.845,1.845,0,0,0,1.313.544H22.286a1.856,1.856,0,0,0,1.857-1.857V3.714A1.845,1.845,0,0,0,23.6,2.4a1.87,1.87,0,0,0-1.313-.544ZM17.178,17.643H8.822a.464.464,0,0,1-.464-.464v-.852a.93.93,0,0,1,.489-.819A8.764,8.764,0,0,1,13,14.393a8.759,8.759,0,0,1,4.154,1.114.928.928,0,0,1,.49.819v.852a.464.464,0,0,1-.464.464ZM13,13a1.857,1.857,0,0,1-1.313-3.17A1.87,1.87,0,0,1,13,9.285,1.857,1.857,0,1,1,13,13Z" transform="translate(0 0)" fill="#04f"/>
</svg>
